<?xml version="1.0" encoding="UTF-8"?>
<svg width="16" height="16" inkscape:version="1.1 (c68e22c387, 2021-05-23)" sodipodi:docname="folder-network.svg" version="1" xmlns="http://www.w3.org/2000/svg" xmlns:inkscape="http://www.inkscape.org/namespaces/inkscape" xmlns:sodipodi="http://sodipodi.sourceforge.net/DTD/sodipodi-0.dtd">
 <sodipodi:namedview bordercolor="#666666" borderopacity="1.0" inkscape:current-layer="svg16" inkscape:cx="6.171875" inkscape:cy="6.59375" inkscape:guide-bbox="true" inkscape:lockguides="true" inkscape:pagecheckerboard="0" inkscape:pageopacity="0.0" inkscape:pageshadow="2" inkscape:window-height="718" inkscape:window-maximized="1" inkscape:window-width="1301" inkscape:window-x="55" inkscape:window-y="10" inkscape:zoom="32" pagecolor="#ffffff" showgrid="true" showguides="true">
  <inkscape:grid type="xygrid"/>
  <sodipodi:guide inkscape:locked="true" orientation="1,0" position="2,2"/>
  <sodipodi:guide inkscape:locked="true" orientation="0,-1" position="2,14"/>
  <sodipodi:guide inkscape:locked="true" orientation="1,0" position="14,14"/>
  <sodipodi:guide inkscape:locked="true" orientation="0,-1" position="14,2"/>
 </sodipodi:namedview>
 <path class="ColorScheme-Text" d="m8.0012 2.0033c-3.3135 0-5.9996 2.6861-5.9996 5.9996 0 3.3135 2.6861 5.9996 5.9996 5.9996 3.3135 0 5.9996-2.6861 5.9996-5.9996 0-3.3135-2.6861-5.9996-5.9996-5.9996zm-0.42855 1.6606c0.05734-6e-3 0.12963 0.00343 0.18749 0 0.00686 0.027427-0.04174 0.12502-0.10714 0.26784-0.41643 0.90972-0.44005 1.9751-0.053568 2.5445 0.069938 0.10325 0.13392 0.2015 0.13392 0.21427 0 0.01277-0.075424 0.026741-0.1607 0.026741-0.2002 0-0.38965-0.12202-0.77674-0.42854-0.17196-0.13617-0.3955-0.25054-0.48211-0.26785-0.136-0.02717-0.17226-0.015256-0.3482 0.1607-0.1637 0.16367-0.21426 0.25192-0.21426 0.40176 0 0.5682 0.6746 1.0199 1.9285 1.2856 1.7028 0.3609 2.1225 0.68492 2.1695 1.5803 0.058968 1.1228-0.53877 1.9694-1.8481 2.6248-0.15627 0.07826-0.25584 0.10864-0.32141 0.13392-0.029056-0.0026-0.05134 0.0026-0.08031 0-0.011142-0.03472-0.026741-0.11524-0.026741-0.26784 0-0.59635-0.23505-1.2102-0.58924-1.5535-0.095077-0.092154-0.36129-0.28742-0.58926-0.42854-0.22796-0.14111-0.45764-0.30504-0.5089-0.37498-0.084938-0.11606-0.092-0.18736-0.026741-0.40176 0.11893-0.39158 0.26048-0.60967 0.53567-0.85709 0.14427-0.12971 0.28945-0.23849 0.32141-0.24106 0.03197-0.0025713-0.1844-0.067539-0.5089-0.13392-0.32448-0.06651-0.79913-0.2058-1.0445-0.29462-0.44876-0.16238-1.0546-0.50325-1.2856-0.74995-0.0097708-0.010456-0.018256-0.017485-0.026741-0.026741 0.33095-1.3183 1.2597-2.3987 2.4909-2.9194 0.25762-0.10896 0.52318-0.18372 0.80352-0.24106 0.13964-0.028541 0.28437-0.038912 0.42854-0.053568zm4.0176 2.0088c0.10066 0.062224 0.48075 0.88452 0.58925 1.2856 0.14008 0.51785 0.12994 1.414 0 1.9285-0.04945 0.19579-0.11284 0.37896-0.13392 0.40176-0.021084 0.022799-0.097546-0.10845-0.18749-0.26784-0.089951-0.15937-0.37726-0.49801-0.61603-0.74995-0.68922-0.72727-0.7976-1.107-0.5089-1.6874 0.14559-0.29269 0.77918-0.95874 0.85709-0.91066z" color="#f9f9f9" fill="#fa74b2" stroke="#f9f9f9" stroke-width="4" style="paint-order:stroke fill markers"/>
</svg>
