<?xml version="1.0" encoding="UTF-8"?>
<svg width="48" height="48" inkscape:version="1.1 (c68e22c387, 2021-05-23)" sodipodi:docname="battery-ac-adapter.svg" version="1" xmlns="http://www.w3.org/2000/svg" xmlns:inkscape="http://www.inkscape.org/namespaces/inkscape" xmlns:sodipodi="http://sodipodi.sourceforge.net/DTD/sodipodi-0.dtd">
 <sodipodi:namedview bordercolor="#666666" borderopacity="1.0" inkscape:current-layer="svg18" inkscape:cx="14.125461" inkscape:cy="28.339483" inkscape:pagecheckerboard="0" inkscape:pageopacity="0.0" inkscape:pageshadow="2" inkscape:window-height="718" inkscape:window-maximized="1" inkscape:window-width="1301" inkscape:window-x="55" inkscape:window-y="10" inkscape:zoom="11.291667" pagecolor="#ffffff" showgrid="false"/>
 <rect x="14" y="5" width="6" height="16" rx="2" ry="2" fill="#f4f4f4"/>
 <rect x="28" y="5" width="6" height="16" rx="2" ry="2" fill="#f4f4f4"/>
 <rect x="9" y="19" width="30" height="24" rx="2" ry="2" fill="#4c566a"/>
 <path d="m16 5c-1.108 0-2 0.892-2 2v1c0-1.108 0.892-2 2-2h2c1.108 0 2 0.892 2 2v-1c0-1.108-0.892-2-2-2h-2z" fill="#fff" opacity=".1"/>
 <path d="m30 5c-1.108 0-2 0.892-2 2v1c0-1.108 0.892-2 2-2h2c1.108 0 2 0.892 2 2v-1c0-1.108-0.892-2-2-2h-2z" fill="#fff" opacity=".1"/>
 <path d="m9 41v1c0 1.108 0.892 2 2 2h26c1.108 0 2-0.892 2-2v-1c0 1.108-0.892 2-2 2h-26c-1.108 0-2-0.892-2-2z" fill="#4c566a" opacity=".2"/>
 <path d="m24 24v6h6l-6 10v-6h-6z" fill="#f9f9f9" opacity=".2"/>
 <path d="m24 23v6h6l-6 10v-6h-6z" fill="#f4f4f4"/>
</svg>
