<?xml version="1.0" encoding="UTF-8"?>
<svg width="48" height="48" inkscape:version="1.1 (c68e22c387, 2021-05-23)" sodipodi:docname="bluetooth-disabled.svg" version="1" xmlns="http://www.w3.org/2000/svg" xmlns:inkscape="http://www.inkscape.org/namespaces/inkscape" xmlns:sodipodi="http://sodipodi.sourceforge.net/DTD/sodipodi-0.dtd">
 <sodipodi:namedview bordercolor="#666666" borderopacity="1.0" inkscape:current-layer="svg20" inkscape:cx="22.516605" inkscape:cy="39.940959" inkscape:pagecheckerboard="0" inkscape:pageopacity="0.0" inkscape:pageshadow="2" inkscape:window-height="718" inkscape:window-maximized="1" inkscape:window-width="1301" inkscape:window-x="55" inkscape:window-y="10" inkscape:zoom="22.583333" pagecolor="#ffffff" showgrid="false"/>
 <rect transform="matrix(0,-1,-1,0,0,0)" x="-44" y="-38" width="40" height="28" rx="14" ry="14" fill="#63c5ea"/>
 <path d="m17 19 14 13-7 7v-27l7 7-14 13" fill="none" opacity=".2" stroke="#f9f9f9" stroke-linecap="square" stroke-width="2"/>
 <path d="m17 18 14 13-7 7v-27l7 7-14 13" fill="none" stroke="#fff" stroke-linecap="square" stroke-width="2"/>
 <path d="m24 4c-7.756 0-14 6.244-14 14v1c0-7.756 6.244-14 14-14s14 6.244 14 14v-1c0-7.756-6.244-14-14-14z" fill="#fff" opacity=".1"/>
 <path d="m10 30v1c0 7.756 6.244 14 14 14s14-6.244 14-14v-1c0 7.756-6.244 14-14 14s-14-6.244-14-14z" fill="#a1d5f7" opacity=".2"/>
 <circle cx="37" cy="36" r="10" fill="#fa5aa4"/>
 <path d="M 46.979,36.414 A 10,10 0 0 1 37,46 10,10 0 0 1 27.021,36.586 10,10 0 0 0 27,37 10,10 0 0 0 37,47 10,10 0 0 0 47,37 10,10 0 0 0 46.979,36.414 Z" fill="#fa74b2" opacity=".2"/>
 <rect transform="matrix(.70711 -.70711 .70711 .70711 0 0)" x="-5.48" y="50.8" width="12" height="2" fill="#fff"/>
 <rect transform="matrix(-.70711 -.70711 .70711 -.70711 0 0)" x="-57.8" y="-.48" width="12" height="2" fill="#fff"/>
</svg>
