<?xml version="1.0" encoding="UTF-8"?>
<svg width="48" height="48" inkscape:version="1.1 (c68e22c387, 2021-05-23)" sodipodi:docname="nm-signal-50.svg" version="1" xmlns="http://www.w3.org/2000/svg" xmlns:inkscape="http://www.inkscape.org/namespaces/inkscape" xmlns:sodipodi="http://sodipodi.sourceforge.net/DTD/sodipodi-0.dtd">
 <sodipodi:namedview bordercolor="#666666" borderopacity="1.0" inkscape:current-layer="svg66" inkscape:cx="9.7859779" inkscape:cy="18.154982" inkscape:pagecheckerboard="0" inkscape:pageopacity="0.0" inkscape:pageshadow="2" inkscape:window-height="718" inkscape:window-maximized="1" inkscape:window-width="1301" inkscape:window-x="55" inkscape:window-y="10" inkscape:zoom="11.291667" pagecolor="#ffffff" showgrid="false"/>
 <path d="m24.082 9.0022c-7.9134 0-15.037 2.8117-20.945 7.1718l20.945 22.82 20.781-22.901c-5.885-4.312-12.929-7.0906-20.781-7.0906z" fill="#f9f9f9"/>
 <path transform="translate(-135.9,-238)" d="m159.9 252.99c-6.3037 0-12.154 2.0674-16.853 5.5589l16.941 18.441 16.765-18.441c-4.71-3.49-10.56-5.56-16.86-5.56z" opacity=".2"/>
 <path d="m24 14.994c-6.3037 0-12.154 2.0674-16.853 5.5589l16.941 18.441 16.765-18.442c-4.699-3.491-10.549-5.558-16.853-5.558z" fill="#f4f4f4"/>
 <path transform="translate(-135.9,-238)" d="m159.9 258.99c-4.7278 0-9.1156 1.5505-12.64 4.1692l12.706 13.831 12.574-13.831c-3.524-2.6186-7.9119-4.1692-12.64-4.1692z" opacity=".2"/>
 <path d="m24 20.994c-4.7278 0-9.1156 1.5505-12.64 4.1692l12.706 13.831 12.574-13.831c-3.524-2.619-7.912-4.169-12.64-4.169z" fill="#7acbea"/>
 <g fill="#fff">
  <path d="m24.082 9.0022c-7.9134 0-15.037 2.8118-20.945 7.1719l0.5625 0.61328c5.7976-4.131 12.714-6.7852 20.383-6.7852 7.6091 0 14.449 2.6224 20.221 6.707l0.56-0.617c-5.887-4.311-12.93-7.0896-20.783-7.0896z" opacity=".1"/>
  <path d="m24.001 14.993c-6.3037 0-12.155 2.069-16.854 5.5606l0.56445 0.61328c4.6011-3.2483 10.231-5.1738 16.289-5.1738 6.0605 0 11.689 1.9275 16.291 5.1777l0.561-0.618c-4.698-3.492-10.547-5.561-16.851-5.561z" opacity=".1"/>
  <path d="m24.001 20.993c-4.7278 0-9.1166 1.5513-12.641 4.1699l0.56445 0.61328c3.4249-2.3766 7.5935-3.7832 12.076-3.7832 4.4846 0 8.6524 1.4086 12.078 3.7871l0.561-0.617c-3.523-2.619-7.91-4.17-12.638-4.17z" opacity=".1"/>
 </g>
 <path d="m44.307 16.717-20.225 22.287-20.385-22.209c-0.1843 0.131-0.378 0.25-0.5603 0.385l20.945 22.82 20.781-22.902c-0.1814-0.1329-0.37305-0.25091-0.55664-0.38086z" fill="#d8a6f4" opacity=".2"/>
 <rect x="22" y="30" width="18" height="14" rx="1.5" ry="1.5" fill="#44eb9f" opacity=".2"/>
 <rect x="22" y="29" width="18" height="14" rx="1.5" ry="1.5" fill="#2be491"/>
 <path d="m24 31v6h3c0.554 0 1 0.446 1 1s-0.44718 0.9639-1 1h-3v2h3c1.662 0 3-1.338 3-3s-1.3415-3.1082-3-3h-1v-2h3v-2h-3z" fill="#fff"/>
 <path d="m34.5 31c-1.9217 0-3.5 1.5783-3.5 3.5v3c0 1.9217 1.5783 3.5 3.5 3.5s3.5-1.5783 3.5-3.5v-3c0-1.9217-1.5783-3.5-3.5-3.5zm0 2c0.8483 0 1.5 0.6517 1.5 1.5v3c0 0.8483-0.6517 1.5-1.5 1.5s-1.5-0.6517-1.5-1.5v-3c0-0.8483 0.6517-1.5 1.5-1.5z" fill="#fff"/>
</svg>
