<?xml version="1.0" encoding="UTF-8"?>
<svg width="48" height="48" inkscape:version="1.1 (c68e22c387, 2021-05-23)" sodipodi:docname="notification-audio-volume-low.svg" version="1" xmlns="http://www.w3.org/2000/svg" xmlns:inkscape="http://www.inkscape.org/namespaces/inkscape" xmlns:sodipodi="http://sodipodi.sourceforge.net/DTD/sodipodi-0.dtd">
 <sodipodi:namedview bordercolor="#666666" borderopacity="1.0" inkscape:current-layer="svg28" inkscape:cx="18.99631" inkscape:cy="24.619926" inkscape:pagecheckerboard="0" inkscape:pageopacity="0.0" inkscape:pageshadow="2" inkscape:window-height="718" inkscape:window-maximized="1" inkscape:window-width="1301" inkscape:window-x="55" inkscape:window-y="10" inkscape:zoom="11.291667" pagecolor="#ffffff" showgrid="false"/>
 <path d="m29 4v4c6.3273 2.1143 11 8.6571 11 16s-4.6727 13.886-11 16v4c8.591-2.229 15-10.286 15-20s-6.409-17.771-15-20z" fill="#d8a6f4" opacity=".2"/>
 <path d="m4 14v20h9.0912l10.909 10v-40l-10.909 10z" fill="#7acbea"/>
 <path d="m34 24c0-3.9-2.011-7.26-5-9v18c2.9609-1.74 5-5.1 5-9z" fill="#fa74b2" opacity=".2"/>
 <path d="m4 34v1h9.0918l10.908 10v-1l-10.908-10h-9.092z" fill="#a1d5f7" opacity=".2"/>
 <path d="m24 4-10.908 10h-9.092v1h9.092l10.908-10v-1z" fill="#fff" opacity=".2"/>
</svg>
