<?xml version="1.0" encoding="UTF-8"?>
<svg width="48" height="48" inkscape:version="1.1 (c68e22c387, 2021-05-23)" sodipodi:docname="notification-audio-volume-muted.svg" version="1" xmlns="http://www.w3.org/2000/svg" xmlns:inkscape="http://www.inkscape.org/namespaces/inkscape" xmlns:sodipodi="http://sodipodi.sourceforge.net/DTD/sodipodi-0.dtd">
 <sodipodi:namedview bordercolor="#666666" borderopacity="1.0" inkscape:current-layer="svg70" inkscape:cx="11.02583" inkscape:cy="28.339483" inkscape:pagecheckerboard="0" inkscape:pageopacity="0.0" inkscape:pageshadow="2" inkscape:window-height="718" inkscape:window-maximized="1" inkscape:window-width="1301" inkscape:window-x="55" inkscape:window-y="10" inkscape:zoom="11.291667" pagecolor="#ffffff" showgrid="false"/>
 <path d="m4 14v20h9.0912l10.909 10v-40l-10.909 10z" fill="#7acbea"/>
 <path d="m4 34v1h9.0918l10.908 10v-1l-10.908-10z" fill="#a1d5f7" opacity=".2"/>
 <path d="m24 4-10.908 10h-9.092v1h9.092l10.908-10z" fill="#fff" opacity=".2"/>
 <circle cx="28" cy="36" r="10" fill="#fa5aa4"/>
 <path d="m37.979 36.414a10 10 0 0 1-9.979 9.586 10 10 0 0 1-9.979-9.414 10 10 0 0 0-0.021 0.414 10 10 0 0 0 10 10 10 10 0 0 0 10-10 10 10 0 0 0-0.021-0.586z" fill="#fa74b2" opacity=".2"/>
 <g transform="matrix(.70711 -.70711 .70711 .70711 -21.497 34.846)" fill="#fff">
  <rect x="28" y="35" width="12" height="2"/>
  <rect transform="rotate(-90)" x="-42" y="33" width="12" height="2"/>
 </g>
</svg>
