<?xml version="1.0" encoding="UTF-8"?>
<svg width="48" height="48" inkscape:version="1.1 (c68e22c387, 2021-05-23)" sodipodi:docname="notification-display-brightness-off.svg" version="1.1" xmlns="http://www.w3.org/2000/svg" xmlns:inkscape="http://www.inkscape.org/namespaces/inkscape" xmlns:sodipodi="http://sodipodi.sourceforge.net/DTD/sodipodi-0.dtd">
 <sodipodi:namedview bordercolor="#666666" borderopacity="1.0" inkscape:current-layer="svg112" inkscape:cx="21.387454" inkscape:cy="23.734317" inkscape:pagecheckerboard="0" inkscape:pageopacity="0.0" inkscape:pageshadow="2" inkscape:window-height="718" inkscape:window-maximized="1" inkscape:window-width="1301" inkscape:window-x="55" inkscape:window-y="10" inkscape:zoom="11.291667" pagecolor="#ffffff" showgrid="false"/>
 <rect transform="matrix(0,-1,-1,0,0,0)" x="-42" y="-36" width="32" height="24" rx="2" ry="2" fill="#cf8ef4"/>
 <rect transform="matrix(0,-1,-1,0,0,0)" x="-38" y="-44" width="32" height="40" rx="2" ry="2" fill="#d8a6f4"/>
 <rect transform="matrix(0,-1,-1,0,0,0)" x="-35" y="-41" width="26" height="34" rx="0" ry="0" fill="#f4f4f4"/>
 <path d="m6 6c-1.108 0-2 0.892-2 2v1c0-1.108 0.892-2 2-2h36c1.108 0 2 0.892 2 2v-1c0-1.108-0.892-2-2-2h-36z" fill="#fff" opacity=".2"/>
 <path d="m12 40v1c0 1.108 0.892 2 2 2h20c1.108 0 2-0.892 2-2v-1c0 1.108-0.892 2-2 2h-20c-1.108 0-2-0.892-2-2z" fill="#cf8ef4" opacity=".2"/>
 <path d="m4 36v1c0 1.108 0.892 2 2 2h36c1.108 0 2-0.892 2-2v-1c0 1.108-0.892 2-2 2h-36c-1.108 0-2-0.892-2-2z" fill="#d8a6f4" opacity=".2"/>
 <circle cx="37" cy="36" r="10" fill="#fa5aa4"/>
 <path d="m46.979 36.414a10 10 0 0 1-9.979 9.586 10 10 0 0 1-9.979-9.414 10 10 0 0 0-0.021 0.414 10 10 0 0 0 10 10 10 10 0 0 0 10-10 10 10 0 0 0-0.021-0.586z" fill="#fa74b2" opacity=".2"/>
 <g transform="matrix(.70711 -.70711 .70711 .70711 -12.497 34.846)" fill="#fff">
  <rect x="28" y="35" width="12" height="2"/>
  <rect transform="rotate(-90)" x="-42" y="33" width="12" height="2"/>
 </g>
</svg>
