<?xml version="1.0" encoding="UTF-8"?>
<svg width="48" height="48" inkscape:version="1.1 (c68e22c387, 2021-05-23)" sodipodi:docname="notification-display-brightness-full.svg" version="1.1" xmlns="http://www.w3.org/2000/svg" xmlns:inkscape="http://www.inkscape.org/namespaces/inkscape" xmlns:sodipodi="http://sodipodi.sourceforge.net/DTD/sodipodi-0.dtd">
 <sodipodi:namedview bordercolor="#666666" borderopacity="1.0" inkscape:current-layer="svg18" inkscape:cx="22.700476" inkscape:cy="27.553681" inkscape:pagecheckerboard="0" inkscape:pageopacity="0.0" inkscape:pageshadow="2" inkscape:window-height="718" inkscape:window-maximized="1" inkscape:window-width="1301" inkscape:window-x="55" inkscape:window-y="10" inkscape:zoom="15.968828" pagecolor="#ffffff" showgrid="false"/>
 <rect transform="matrix(0,-1,-1,0,0,0)" x="-42" y="-36" width="32" height="24" rx="2" ry="2" fill="#cf8ef4"/>
 <rect transform="matrix(0,-1,-1,0,0,0)" x="-38" y="-44" width="32" height="40" rx="2" ry="2" fill="#d8a6f4"/>
 <rect transform="matrix(0,-1,-1,0,0,0)" x="-35" y="-41" width="26" height="34" rx="0" ry="0" fill="#f4f4f4"/>
 <path d="m6 6c-1.108 0-2 0.892-2 2v1c0-1.108 0.892-2 2-2h36c1.108 0 2 0.892 2 2v-1c0-1.108-0.892-2-2-2h-36z" fill="#fff" opacity=".2"/>
 <path d="m12 40v1c0 1.108 0.892 2 2 2h20c1.108 0 2-0.892 2-2v-1c0 1.108-0.892 2-2 2h-20c-1.108 0-2-0.892-2-2z" fill="#cf8ef4" opacity=".2"/>
 <path d="m4 36v1c0 1.108 0.892 2 2 2h36c1.108 0 2-0.892 2-2v-1c0 1.108-0.892 2-2 2h-36c-1.108 0-2-0.892-2-2z" fill="#d8a6f4" opacity=".2"/>
 <path d="m24 11.685-3.3145 3.3145h-4.6855v4.6855l-3.3145 3.3145 3.314 3.314v4.6855h4.6855l3.314 3.314 3.314-3.314h4.686v-4.686l3.314-3.314-3.314-3.315v-4.6855h-4.6855l-3.314-3.315z" fill="#f9f9f9" opacity=".2"/>
 <path d="m24 10.686-3.314 3.314h-4.686v4.686l-3.314 3.314 3.314 3.314v4.686h4.686l3.314 3.314 3.314-3.314h4.686v-4.686l3.314-3.314-3.314-3.314v-4.686h-4.686l-3.314-3.314z" fill="#fa74b2"/>
</svg>
